# xmcd CD database file
#
# Track frame offsets:
#	150
#	15711
#	36308
#	48510
#	60452
#	72245
#	82016
#	93131
#	103897
#	117432
#	146792
#	152547
#	167060
#
# Disc length: 2402 seconds
#
# Revision: 0
# Processed by: cddbd v1.5.2PL0 Copyright (c) Steve Scherf et al.
# Submitted via: CDex 1.51
#
DISCID=af09600d
DTITLE=Axel Giudice - 12 Musicas
DYEAR=2003
DGENRE=Jazz
TTITLE0=Berimbou - BPowell&Vinicius
TTITLE1=Uma valsa dois amores - DReis
TTITLE2=Odeon - ENazareth
TTITLE3=Sons de carrilhoes - JPernambuco
TTITLE4=Tico-Tico no fuba - ZdeAbreu
TTITLE5=El mishi - EFalu
TTITLE6=Luiza - ACJobim
TTITLE7=Adeus - HPaschaal
TTITLE8=Murmullos de la laguna EFalu
TTITLE9=Asturias - JAlbeniz
TTITLE10=El colibri - JSagreras
TTITLE11=Flamenco - MdeFalla
TTITLE12=Extra
EXTD=YEAR: 2003
EXTT0=
EXTT1=
EXTT2=
EXTT3=
EXTT4=
EXTT5=
EXTT6=
EXTT7=
EXTT8=
EXTT9=
EXTT10=
EXTT11=
EXTT12=
PLAYORDER=
